{"title":"Captain America (2011) 720p MKV x264 DTS BRrip [Pioneer]","uid":8338638,"size":4201330706,"categoryP":"video","categoryS":"hd___movies","magnet":"?xt=urn:btih:e92d4db7a3e5450896fa2ebd5b02e9cd7c33cd2c&amp;dn=Captain+America+%282011%29+720p+MKV+x264+DTS+BRrip+%5BPioneer%5D&amp;tr=udp%3A%2F%2Ftracker.openbittorrent.com%3A80&amp;tr=udp%3A%2F%2Fopen.demonii.com%3A1337&amp;tr=udp%3A%2F%2Ftracker.coppersurfer.tk%3A6969&amp;tr=udp%3A%2F%2Fexodus.desync.com%3A6969","seeders":1,"leechers":0,"uploader":"Pioneer47","files":-1,"time":1365032168,"description":"&quot;Captain America: The First Avenger&quot; will focus on the early days of the Marvel Universe when Steve Rogers volunteers to participate in an experimental program that turns him into the Super Soldier known as Captain America. As Captain America, Rogers joins forces with Bucky Barnes and Peggy Carter to wage war on the evil HYDRA organization, led by the villainous Red Skull.\n\nStarring: Samuel L. Jackson, Craig Fairbrass, Toby Jones, Hayley Atwell, Sebastian Stan, Stanley Tucci, Chris Evans, Hugo Weaving\nDirector: Joe Johnston\n\n &lt;a href=&quot;\nhttp://www.imdb.com/title/tt0458339/&quot; rel=&quot;nofollow&quot; target=&quot;_NEW&quot;&gt;\nhttp://www.imdb.com/title/tt0458339/&lt;/a&gt;\n\n\n &lt;a href=&quot;\nhttp://stpicz.com/1140_vlcsnap_2013_04_03_21h58m20s53_vile.png&quot; rel=&quot;nofollow&quot; target=&quot;_NEW&quot;&gt;\nhttp://stpicz.com/1140_vlcsnap_2013_04_03_21h58m20s53_vile.png&lt;/a&gt; &lt;a href=&quot;\nhttp://stpicz.com/3857_vlcsnap_2013_04_03_21h42m08s62_eiep.png&quot; rel=&quot;nofollow&quot; target=&quot;_NEW&quot;&gt;\nhttp://stpicz.com/3857_vlcsnap_2013_04_03_21h42m08s62_eiep.png&lt;/a&gt; &lt;a href=&quot;\nhttp://stpicz.com/0874_vlcsnap_2013_04_03_21h46m13s213_bs90.png&quot; rel=&quot;nofollow&quot; target=&quot;_NEW&quot;&gt;\nhttp://stpicz.com/0874_vlcsnap_2013_04_03_21h46m13s213_bs90.png&lt;/a&gt; &lt;a href=&quot;\nhttp://stpicz.com/7990_vlcsnap_2013_04_03_21h48m03s27_j9kl.png&quot; rel=&quot;nofollow&quot; target=&quot;_NEW&quot;&gt;\nhttp://stpicz.com/7990_vlcsnap_2013_04_03_21h48m03s27_j9kl.png&lt;/a&gt; &lt;a href=&quot;\nhttp://stpicz.com/1545_vlcsnap_2013_04_03_21h58m10s220_0tia.png&quot; rel=&quot;nofollow&quot; target=&quot;_NEW&quot;&gt;\nhttp://stpicz.com/1545_vlcsnap_2013_04_03_21h58m10s220_0tia.png&lt;/a&gt; &lt;a href=&quot;\nhttp://stpicz.com/5680_vlcsnap_2013_04_03_21h57m19s221_adnc.png&quot; rel=&quot;nofollow&quot; target=&quot;_NEW&quot;&gt;\nhttp://stpicz.com/5680_vlcsnap_2013_04_03_21h57m19s221_adnc.png&lt;/a&gt; &lt;a href=&quot;\nhttp://stpicz.com/1777_vlcsnap_2013_04_03_21h53m18s122_s0ra.png&quot; rel=&quot;nofollow&quot; target=&quot;_NEW&quot;&gt;\nhttp://stpicz.com/1777_vlcsnap_2013_04_03_21h53m18s122_s0ra.png&lt;/a&gt; &lt;a href=&quot;\nhttp://stpicz.com/5248_vlcsnap_2013_04_03_21h51m56s57_la9i.png&quot; rel=&quot;nofollow&quot; target=&quot;_NEW&quot;&gt;\nhttp://stpicz.com/5248_vlcsnap_2013_04_03_21h51m56s57_la9i.png&lt;/a&gt; &lt;a href=&quot;\nhttp://stpicz.com/2224_vlcsnap_2013_04_03_21h50m35s11_xq9t.png&quot; rel=&quot;nofollow&quot; target=&quot;_NEW&quot;&gt;\nhttp://stpicz.com/2224_vlcsnap_2013_04_03_21h50m35s11_xq9t.png&lt;/a&gt; &lt;a href=&quot;\nhttp://stpicz.com/1813_vlcsnap_2013_04_03_21h49m56s135_qth1.png&quot; rel=&quot;nofollow&quot; target=&quot;_NEW&quot;&gt;\nhttp://stpicz.com/1813_vlcsnap_2013_04_03_21h49m56s135_qth1.png&lt;/a&gt;\n\n\n\nGeneral\nUnique ID: 225077787832252344429122687873495969963 (0xA95467B7459AE4AD9090A2FC738DB0AB)\nComplete name: E:Captain America (2011) 720p MKV x264 DTS BRrip [Pioneer].mkv\nFormat: Matroska\nFormat version: Version 4 / Version 2\nFile size: 3.91 GiB\nDuration: 2h 4mn\nOverall bit rate: 4 511 Kbps\nMovie name: Captain America (2011) - Encoded by Pioneer\nEncoded date: UTC 2013-03-31 09:48:35\nWriting application: mkvmerge v6.1.0 ('Old Devil') built on Mar  2 2013 14:32:37\nWriting library: libebml v1.3.0 + libmatroska v1.4.0\n\nVideo\nID: 1\nFormat: AVC\nFormat/Info: Advanced Video Codec\nFormat profile: &lt;a class=&quot;__cf_email__&quot; href=&quot;/cdn-cgi/l/email-protection&quot; data-cfemail=&quot;652d0c020d2529564b54&quot;&gt;[email&amp;#160;protected]&lt;/a&gt;&lt;script cf-hash='f9e31' type=&quot;text/javascript&quot;&gt;\n/* &lt;![CDATA[ */!function(){try{var t=&quot;currentScript&quot;in document?document.currentScript:function(){for(var t=document.getElementsByTagName(&quot;script&quot;),e=t.length;e--;)if(t[e].getAttribute(&quot;cf-hash&quot;))return t[e]}();if(t&amp;&amp;t.previousSibling){var e,r,n,i,c=t.previousSibling,a=c.getAttribute(&quot;data-cfemail&quot;);if(a){for(e=&quot;&quot;,r=parseInt(a.substr(0,2),16),n=2;a.length-n;n+=2)i=parseInt(a.substr(n,2),16)^r,e+=String.fromCharCode(i);e=document.createTextNode(e),c.parentNode.replaceChild(e,c)}}}catch(u){}}();/* ]]&gt; */&lt;/script&gt;\nFormat settings, CABAC: Yes\nFormat settings, ReFrames: 5 frames\nCodec ID: V_MPEG4/ISO/AVC\nDuration: 2h 4mn\nBit rate: 3 000 Kbps\nWidth: 1 280 pixels\nHeight: 544 pixels\nDisplay aspect ratio: 2.35:1\nFrame rate mode: Constant\nFrame rate: 23.976 fps\nColor space: YUV\nChroma subsampling: 4:2:0\nBit depth: 8 bits\nScan type: Progressive\nBits/(Pixel*Frame): 0.180\nStream size: 2.53 GiB (65%)\nWriting library: x264 core 120\nLanguage: English\nDefault: Yes\nForced: No\nColor primaries: BT.709\nTransfer characteristics: BT.709\nMatrix coefficients: BT.709\n\nAudio\nID: 2\nFormat: DTS\nFormat/Info: Digital Theater Systems\nMode: 16\nFormat settings, Endianness: Big\nCodec ID: A_DTS\nDuration: 2h 4mn\nBit rate mode: Constant\nBit rate: 1 509 Kbps\nChannel(s): 6 channels\nChannel positions: Front: L C R, Side: L R, LFE\nSampling rate: 48.0 KHz\nBit depth: 24 bits\nCompression mode: Lossy\nStream size: 1.31 GiB (33%)\nLanguage: English\nDefault: Yes\nForced: No","torrent":{"xt":"urn:btih:e92d4db7a3e5450896fa2ebd5b02e9cd7c33cd2c","amp;dn":"Captain+America+%282011%29+720p+MKV+x264+DTS+BRrip+%5BPioneer%5D","amp;tr":["udp%3A%2F%2Ftracker.openbittorrent.com%3A80","udp%3A%2F%2Fopen.demonii.com%3A1337","udp%3A%2F%2Ftracker.coppersurfer.tk%3A6969","udp%3A%2F%2Fexodus.desync.com%3A6969"],"infoHash":"e92d4db7a3e5450896fa2ebd5b02e9cd7c33cd2c","infoHashBuffer":{"type":"Buffer","data":[233,45,77,183,163,229,69,8,150,250,46,189,91,2,233,205,124,51,205,44]},"announce":[],"urlList":[]}}